<?xml version="1.0" encoding="UTF-8" standalone="no"?>
<svg
   xmlns:dc="http://purl.org/dc/elements/1.1/"
   xmlns:cc="http://creativecommons.org/ns#"
   xmlns:rdf="http://www.w3.org/1999/02/22-rdf-syntax-ns#"
   xmlns:svg="http://www.w3.org/2000/svg"
   xmlns="http://www.w3.org/2000/svg"
   height="87.362747"
   width="64.291"
   id="svg2"
   xml:space="preserve"
   enable-background="new 0 0 100 100"
   viewBox="0 0 64.291 87.362748"
   y="0px"
   x="0px"
   version="1.1"><metadata
     id="metadata16"><rdf:RDF><cc:Work
         rdf:about=""><dc:format>image/svg+xml</dc:format><dc:type
           rdf:resource="http://purl.org/dc/dcmitype/StillImage" /><dc:title></dc:title></cc:Work></rdf:RDF></metadata><defs
     id="defs14" /><g
     transform="translate(-16.376,-6.04325)"
     id="g4"><path
       id="path6"
       d="m 48.667,93.406 c -8.309,0 -16.183,-3.197 -22.769,-9.246 -6.729,-6.18 -9.522,-16.749 -9.522,-21.035 0,-5.583 1.065,-9.561 4.958,-18.506 4.135,-9.504 24.721,-36.676 25.595,-37.828 0.757,-0.997 2.43,-0.997 3.187,0 0.874,1.152 21.46,28.323 25.595,37.828 3.936,9.052 4.956,12.831 4.956,18.381 0,4.308 -2.793,14.918 -9.522,21.098 -6.427,5.902 -14.05,9.099 -22.085,9.271 -0.128,0.024 -0.259,0.037 -0.393,0.037 z M 48.521,11.328 C 43.523,18.009 28.302,38.625 25,46.214 c -3.927,9.026 -4.625,12.277 -4.625,16.911 0,3.559 2.484,12.815 8.228,18.09 3.979,3.654 10.555,7.995 19.457,8.185 0.103,-0.016 0.208,-0.024 0.315,-0.024 9.182,0 15.979,-4.472 20.064,-8.223 5.743,-5.274 8.228,-14.573 8.228,-18.152 0,-4.617 -0.669,-7.69 -4.626,-16.786 C 68.738,38.624 53.519,18.009 48.521,11.328 Z" /></g></svg>